<svg xmlns="http://www.w3.org/2000/svg" viewBox="0 0 60 60" fill="none">
  <rect width="60" height="60" rx="12" fill="#FF6B35"/>
  <path d="M30 12C20 12 14 18 14 26c0 5 2 8 5 10l-1 8h24l-1-8c3-2 5-5 5-10 0-8-6-14-16-14z" fill="white"/>
  <circle cx="24" cy="25" r="2.5" fill="#FF6B35"/>
  <circle cx="36" cy="25" r="2.5" fill="#FF6B35"/>
  <path d="M25 32c0 0 2 3 5 3s5-3 5-3" stroke="#FF6B35" stroke-width="2" stroke-linecap="round"/>
  <path d="M20 16c-2-3 0-6 3-5" stroke="white" stroke-width="1.5" stroke-linecap="round"/>
  <path d="M40 16c2-3 0-6-3-5" stroke="white" stroke-width="1.5" stroke-linecap="round"/>
</svg>
